<svg width="46" height="44" viewBox="0 0 46 44" fill="none" xmlns="http://www.w3.org/2000/svg">
<path d="M45.8 12.5V0C37.8 0 30 2.69999 24.4 7.39999L22.9 8.60001L21.4 7.39999C15.7 2.69999 8 0 0 0V12.5C0 15.9 1.20001 19.1 3.20001 21.8C1.20001 24.5 0 27.7 0 31.1V43.6C8 43.6 15.8 40.9 21.4 36.2L22.9 35C19 32.7 16.6 28.6 16.6 24V19.6C16.6 15.1 19 10.9 22.9 8.60001C26.8 10.9 29.2 15.1 29.2 19.6V24C29.2 28.5 26.8 32.7 22.9 35L24.4 36.2C30.1 40.9 37.8 43.6 45.8 43.6V31.1C45.8 27.7 44.6 24.5 42.6 21.8C44.6 19.1 45.8 15.9 45.8 12.5Z" fill="#FF7A7A"/>
</svg>
